Coordinates
version=1
nRows=27
nColumns=12
inDegrees=yes

Units are S.I. units (second, meters, Newtons, ...)
Angles are in degrees

endheader
time	SC_y	SC_z	SC_x	AC_y	AC_z	AC_x	GH_y	GH_z	GH_yy	EL_x	PS_y
       0.0              -49.94          28.63          79.72          54.31          6.675         -16.94         -157.1         0.5628         -5.674           76.7          128.7
   0.04839              -49.94          28.63          79.71          54.31          6.675         -16.94         -157.1         0.5618         -5.677          76.71          128.7
   0.09677              -49.94          28.63           79.7           54.3          6.676         -16.93         -157.0         0.5607         -5.679          76.72          128.7
    0.1452              -49.94          28.64          79.69           54.3          6.676         -16.93         -157.0         0.5595         -5.682          76.73          128.7
    0.1935              -49.93          28.64          79.68           54.3          6.677         -16.92         -157.0         0.5583         -5.685          76.74          128.7
    0.2419              -49.93          28.64          79.67          54.29          6.677         -16.91         -157.0          0.557         -5.688          76.75          128.7
    0.2903              -49.93          28.64          79.66          54.29          6.678         -16.91         -157.0         0.5556         -5.691          76.76          128.7
    0.3387              -49.93          28.64          79.64          54.28          6.678          -16.9         -156.9         0.5541         -5.694          76.77          128.7
    0.3871              -49.92          28.64          79.63          54.28          6.679         -16.89         -156.9         0.5525         -5.698          76.79          128.7
    0.4355              -49.92          28.65          79.61          54.27           6.68         -16.88         -156.9         0.5508         -5.702           76.8          128.7
    0.4839              -49.91          28.65          79.59          54.27           6.68         -16.87         -156.8          0.549         -5.706          76.82          128.7
    0.5323              -49.91          28.65          79.58          54.26          6.681         -16.86         -156.8          0.547         -5.711          76.84          128.7
    0.5806               -49.9          28.65          79.56          54.26          6.682         -16.85         -156.8         0.5449         -5.716          76.85          128.7
     0.629               -49.9          28.65          79.53          54.25          6.683         -16.84         -156.7         0.5426         -5.721          76.87          128.7
    0.6774              -49.89          28.66          79.51          54.24          6.684         -16.83         -156.7         0.5401         -5.727           76.9          128.7
    0.7258              -49.89          28.66          79.49          54.24          6.685         -16.81         -156.6         0.5374         -5.733          76.92          128.7
    0.7742              -49.88          28.66          79.46          54.23          6.686          -16.8         -156.6         0.5344          -5.74          76.95          128.8
    0.8226              -49.87          28.67          79.43          54.22          6.687         -16.78         -156.5         0.5312         -5.747          76.97          128.8
     0.871              -49.87          28.67          79.39          54.21          6.689         -16.76         -156.5         0.5277         -5.756           77.0          128.8
    0.9193              -49.86          28.68          79.36           54.2           6.69         -16.74         -156.4         0.5239         -5.764          77.04          128.8
    0.9677              -49.85          28.68          79.32          54.18          6.692         -16.72         -156.3         0.5197         -5.774          77.07          128.8
     1.016              -49.84          28.68          79.28          54.17          6.694          -16.7         -156.3          0.515         -5.785          77.11          128.8
     1.065              -49.83          28.69          79.23          54.16          6.696         -16.67         -156.2         0.5099         -5.797          77.16          128.8
     1.113              -49.81           28.7          79.17          54.14          6.698         -16.64         -156.1         0.5043          -5.81          77.21          128.8
     1.161               -49.8           28.7          79.12          54.12          6.701         -16.61         -156.0          0.498         -5.824          77.26          128.8
      1.21              -49.78          28.71          79.05           54.1          6.703         -16.57         -155.9         0.4909         -5.841          77.32          128.8
     1.258              -49.77          28.72          78.98          54.08          6.706         -16.53         -155.7         0.4831         -5.859          77.39          128.8
